<svg xmlns="http://www.w3.org/2000/svg" width="70.561" height="50.289" viewBox="0 0 70.561 50.289">
  <path id="car-89" d="M117.144,196.8a5.316,5.316,0,0,0-3.048-3.676c-.275-.149-.559-.282-.871-.438.777-.545,1.536-1.011,2.217-1.572a1.414,1.414,0,0,0-.175-2.371,1.608,1.608,0,0,0-1.789.2c-1.26.811-2.564,1.553-3.9,2.357-.191-.38-.308-.6-.411-.822-1.7-3.671-3.375-7.35-5.092-11.011a7.479,7.479,0,0,0-7.235-4.626c-9.843-.014-19.685.008-29.528-.012a7.725,7.725,0,0,0-7.6,4.828q-2.462,5.318-4.954,10.622c-.123.263-.256.521-.4.811a4.153,4.153,0,0,1-.548-.223c-1.195-.713-2.392-1.421-3.572-2.157a1.48,1.48,0,0,0-2.03.261,1.409,1.409,0,0,0,.215,2.021c.489.41,1.032.757,1.555,1.126.208.146.427.276.5.321a17.157,17.157,0,0,0-2.444,2.108,5.539,5.539,0,0,0-1.2,2.572,101.074,101.074,0,0,0,.085,10.714,9.324,9.324,0,0,0,3.92,6.289c.605.441,1.476.742,1.766,1.332a5.715,5.715,0,0,1,.071,2.3,7.3,7.3,0,1,0,14.607.019c0-.61,0-1.22,0-1.827H96.632c0,.67,0,1.285,0,1.9a7.314,7.314,0,0,0,14.161,2.525,12.5,12.5,0,0,0,.435-4.614.834.834,0,0,1,.551-.879,9.315,9.315,0,0,0,4.794-5.4,13.205,13.205,0,0,0,.37-1.3C117.4,206.271,117.313,197.965,117.144,196.8ZM62.593,180.449a4.749,4.749,0,0,1,4.7-2.712q13.151.01,26.3,0c1.281,0,2.566-.029,3.842.055a4.291,4.291,0,0,1,3.794,2.554c1.835,3.884,3.614,7.794,5.414,11.694a.986.986,0,0,1,.021.222,82.806,82.806,0,0,1-25.024,3.323,81.617,81.617,0,0,1-24.553-3.407C58.963,188.184,60.75,184.3,62.593,180.449Zm-.676,41.26a4.373,4.373,0,0,1-6.321-3.555c-.059-.743-.009-1.495-.009-2.272h8.67C64.666,218.516,64.149,220.57,61.917,221.71Zm44.042-.04a4.371,4.371,0,0,1-6.4-3.5c-.061-.723-.009-1.455-.009-2.28h8.687C108.595,218.506,108.172,220.482,105.958,221.67Zm8.188-14.965a6.446,6.446,0,0,1-6.652,6.207q-12.775,0-25.55,0c-8.425,0-16.851-.073-25.274.036a6.771,6.771,0,0,1-6.98-6.874c0-2.587-.013-5.174,0-7.761a3.928,3.928,0,0,1,1.9-3.468c1.2-.824,3.433-.391,5.276.264a54.533,54.533,0,0,0,13.816,2.785c4.031.334,8.082.6,12.124.6A82.589,82.589,0,0,0,106.2,195.45c.964-.283,1.915-.609,2.866-.933a5.191,5.191,0,0,1,3.71.786,3.331,3.331,0,0,1,1.429,2.957C114.222,201.075,114.285,203.9,114.147,206.7ZM93.1,204.12q-5.558,0-11.116,0-5.592,0-11.185,0a3.94,3.94,0,0,0-.95.1,1.431,1.431,0,0,0-.023,2.768,4.133,4.133,0,0,0,1.017.1q11.116.008,22.232,0c1.344,0,2.053-.509,2.066-1.476S94.427,204.12,93.1,204.12Zm-34.786-4.167a4.364,4.364,0,0,0-4.385,4.329,4.4,4.4,0,1,0,4.385-4.329Zm46.914,0a4.385,4.385,0,0,0-4.411,4.4,4.444,4.444,0,0,0,4.393,4.379,4.387,4.387,0,0,0,4.381-4.429A4.322,4.322,0,0,0,105.226,199.952ZM72.984,179.489a6.622,6.622,0,0,0-1,.682c-1.646,1.521-3.267,3.069-4.9,4.609-1.23,1.163-2.466,2.319-3.681,3.5a1.432,1.432,0,0,0-.1,2.087,1.467,1.467,0,0,0,2.093.034c.192-.162.374-.337.557-.509q2.421-2.283,4.84-4.567,1.744-1.65,3.48-3.309a1.383,1.383,0,0,0,.342-1.633C74.379,179.8,73.914,179.5,72.984,179.489Zm-7.806,5.455c1.182-.973,2.327-2,3.443-3.044a1.286,1.286,0,0,0,.229-1.589,1.484,1.484,0,0,0-1.485-.825,2.01,2.01,0,0,0-.662.281c-1.149.979-2.294,1.965-3.393,3a1.444,1.444,0,0,0,1.868,2.179Z" transform="translate(-46.719 -174.826)" fill="#fff"/>
</svg>
