<svg xmlns="http://www.w3.org/2000/svg" width="22.683" height="22.683" viewBox="0 0 22.683 22.683">
  <path id="Icon_awesome-phone-alt" data-name="Icon awesome-phone-alt" d="M22.036,16.029,17.074,13.9a1.063,1.063,0,0,0-1.241.306l-2.2,2.685a16.422,16.422,0,0,1-7.85-7.85l2.685-2.2a1.061,1.061,0,0,0,.306-1.241L6.65.643A1.07,1.07,0,0,0,5.432.027L.824,1.09A1.063,1.063,0,0,0,0,2.127,20.555,20.555,0,0,0,20.557,22.684a1.063,1.063,0,0,0,1.037-.824l1.063-4.608A1.076,1.076,0,0,0,22.036,16.029Z" transform="translate(0 0)" opacity="0.5"/>
</svg>
