<svg xmlns="http://www.w3.org/2000/svg" width="34.387" height="23.264" viewBox="0 0 34.387 23.264">
  <path id="Icon_awesome-arrow-right" data-name="Icon awesome-arrow-right" d="M3.2,4.205,2.021,3.023a1.273,1.273,0,0,0-1.806,0L-10.141,13.374a1.273,1.273,0,0,0,0,1.806L.215,25.536a1.273,1.273,0,0,0,1.806,0L3.2,24.353a1.28,1.28,0,0,0-.021-1.827l-6.42-6.116H22.591a1.275,1.275,0,0,0,1.279-1.279v-1.7a1.275,1.275,0,0,0-1.279-1.279H-3.237l6.42-6.116A1.271,1.271,0,0,0,3.2,4.205Z" transform="translate(10.517 -2.647)" fill="#fff" opacity="0.5"/>
</svg>
