<svg xmlns="http://www.w3.org/2000/svg" width="24.156" height="18.117" viewBox="0 0 24.156 18.117">
  <path id="Icon_awesome-car" data-name="Icon awesome-car" d="M23.589,9.784H20.764l-.785-1.963A5.257,5.257,0,0,0,15.074,4.5H9.082A5.259,5.259,0,0,0,4.176,7.821L3.391,9.784H.567a.566.566,0,0,0-.549.7L.3,11.62a.566.566,0,0,0,.549.429H1.8A3,3,0,0,0,.755,14.313v2.265a3,3,0,0,0,.755,1.978v2.551a1.51,1.51,0,0,0,1.51,1.51h1.51a1.51,1.51,0,0,0,1.51-1.51V19.6H18.117v1.51a1.51,1.51,0,0,0,1.51,1.51h1.51a1.51,1.51,0,0,0,1.51-1.51V18.556a2.993,2.993,0,0,0,.755-1.978V14.313a3,3,0,0,0-1.041-2.265h.947a.566.566,0,0,0,.549-.429l.283-1.132a.566.566,0,0,0-.55-.7ZM6.979,8.943a2.265,2.265,0,0,1,2.1-1.423h5.992a2.265,2.265,0,0,1,2.1,1.423l.94,2.351H6.039l.94-2.351Zm-2.45,7.626a1.424,1.424,0,0,1-1.51-1.505,1.424,1.424,0,0,1,1.51-1.505,2.9,2.9,0,0,1,2.265,2.258C6.794,16.719,5.435,16.568,4.529,16.568Zm15.1,0c-.906,0-2.265.151-2.265-.753a2.9,2.9,0,0,1,2.265-2.258,1.424,1.424,0,0,1,1.51,1.505,1.424,1.424,0,0,1-1.51,1.505Z" transform="translate(0 -4.5)" opacity="0.5"/>
</svg>
