<svg xmlns="http://www.w3.org/2000/svg" width="34.386" height="23.264" viewBox="0 0 34.386 23.264">
  <path id="Icon_awesome-arrow-right" data-name="Icon awesome-arrow-right" d="M10.149,4.206l1.183-1.183a1.273,1.273,0,0,1,1.806,0L23.494,13.374a1.273,1.273,0,0,1,0,1.806L13.137,25.536a1.273,1.273,0,0,1-1.806,0l-1.183-1.183a1.28,1.28,0,0,1,.021-1.827l6.42-6.116H-9.238a1.276,1.276,0,0,1-1.279-1.279v-1.7a1.276,1.276,0,0,1,1.279-1.279H16.59L10.17,6.033A1.271,1.271,0,0,1,10.149,4.206Z" transform="translate(10.517 -2.647)" fill="#fff"/>
</svg>
