<svg xmlns="http://www.w3.org/2000/svg" xmlns:xlink="http://www.w3.org/1999/xlink" width="97.03" height="19.171" viewBox="0 0 97.03 19.171">
  <defs>
    <clipPath id="clip-path">
      <rect width="97.03" height="19.171" fill="none"/>
    </clipPath>
  </defs>
  <g id="Repeat_Grid_3" data-name="Repeat Grid 3" clip-path="url(#clip-path)">
    <g transform="translate(-209.937 -3704.365)">
      <path id="Icon_awesome-star" data-name="Icon awesome-star" d="M10.382.666,7.937,5.623l-5.47.8A1.2,1.2,0,0,0,1.8,8.465l3.957,3.856-.936,5.447A1.2,1.2,0,0,0,6.563,19.03l4.893-2.572L16.35,19.03a1.2,1.2,0,0,0,1.737-1.262l-.936-5.447,3.957-3.856a1.2,1.2,0,0,0-.663-2.044l-5.47-.8L12.531.666a1.2,1.2,0,0,0-2.149,0Z" transform="translate(208.496 3704.366)" fill="#ffc000"/>
    </g>
    <g transform="translate(-185.937 -3704.365)">
      <path id="Icon_awesome-star-2" data-name="Icon awesome-star" d="M10.382.666,7.937,5.623l-5.47.8A1.2,1.2,0,0,0,1.8,8.465l3.957,3.856-.936,5.447A1.2,1.2,0,0,0,6.563,19.03l4.893-2.572L16.35,19.03a1.2,1.2,0,0,0,1.737-1.262l-.936-5.447,3.957-3.856a1.2,1.2,0,0,0-.663-2.044l-5.47-.8L12.531.666a1.2,1.2,0,0,0-2.149,0Z" transform="translate(208.496 3704.366)" fill="#ffc000"/>
    </g>
    <g transform="translate(-161.937 -3704.365)">
      <path id="Icon_awesome-star-3" data-name="Icon awesome-star" d="M10.382.666,7.937,5.623l-5.47.8A1.2,1.2,0,0,0,1.8,8.465l3.957,3.856-.936,5.447A1.2,1.2,0,0,0,6.563,19.03l4.893-2.572L16.35,19.03a1.2,1.2,0,0,0,1.737-1.262l-.936-5.447,3.957-3.856a1.2,1.2,0,0,0-.663-2.044l-5.47-.8L12.531.666a1.2,1.2,0,0,0-2.149,0Z" transform="translate(208.496 3704.366)" fill="#ffc000"/>
    </g>
    <g transform="translate(-137.937 -3704.365)">
      <path id="Icon_awesome-star-4" data-name="Icon awesome-star" d="M10.382.666,7.937,5.623l-5.47.8A1.2,1.2,0,0,0,1.8,8.465l3.957,3.856-.936,5.447A1.2,1.2,0,0,0,6.563,19.03l4.893-2.572L16.35,19.03a1.2,1.2,0,0,0,1.737-1.262l-.936-5.447,3.957-3.856a1.2,1.2,0,0,0-.663-2.044l-5.47-.8L12.531.666a1.2,1.2,0,0,0-2.149,0Z" transform="translate(208.496 3704.366)" fill="#ffc000"/>
    </g>
  </g>
</svg>
