<svg xmlns="http://www.w3.org/2000/svg" width="23.741" height="26" viewBox="0 0 23.741 26">
  <path id="schedule-22" d="M69.51,29.41H49.422A1.811,1.811,0,0,1,47.6,27.617V7.893A1.809,1.809,0,0,1,49.422,6.1h1.827V7a2.739,2.739,0,0,0,5.478,0V6.1h5.478V7a2.739,2.739,0,0,0,5.478,0V6.1H69.51a1.811,1.811,0,0,1,1.827,1.793V27.617A1.815,1.815,0,0,1,69.51,29.41Zm0-17.033H49.422v15.24H69.51V12.377Zm-1.827,4.48H51.249v-2.69H67.683v2.69Zm0,4.483H51.249V18.65H67.683v2.69Zm0,4.483H51.249v-2.69H67.683v2.69ZM64.916,8.79a1.779,1.779,0,0,1-1.8-1.766V5.176a1.8,1.8,0,0,1,3.593,0V7.024A1.783,1.783,0,0,1,64.916,8.79Zm-10.956,0a1.779,1.779,0,0,1-1.8-1.766V5.176a1.8,1.8,0,0,1,3.593,0V7.024A1.783,1.783,0,0,1,53.961,8.79Z" transform="translate(-47.596 -3.41)" fill="#fff"/>
</svg>
